<?xml version="1.0" encoding="UTF-8" standalone="no"?>
<svg
   xmlns:dc="http://purl.org/dc/elements/1.1/"
   xmlns:cc="http://creativecommons.org/ns#"
   xmlns:rdf="http://www.w3.org/1999/02/22-rdf-syntax-ns#"
   xmlns:svg="http://www.w3.org/2000/svg"
   xmlns="http://www.w3.org/2000/svg"
   xmlns:sodipodi="http://sodipodi.sourceforge.net/DTD/sodipodi-0.dtd"
   xmlns:inkscape="http://www.inkscape.org/namespaces/inkscape"
   viewBox="0 0 48 48"
   version="1.1"
   id="svg77"
   sodipodi:docname="gnome-pomodoro.svg"
   inkscape:version="0.92.3 (2405546, 2018-03-11)">
  <metadata
     id="metadata81">
    <rdf:RDF>
      <cc:Work
         rdf:about="">
        <dc:format>image/svg+xml</dc:format>
        <dc:type
           rdf:resource="http://purl.org/dc/dcmitype/StillImage" />
      </cc:Work>
    </rdf:RDF>
  </metadata>
  <sodipodi:namedview
     pagecolor="#ffffff"
     bordercolor="#666666"
     borderopacity="1"
     objecttolerance="10"
     gridtolerance="10"
     guidetolerance="10"
     inkscape:pageopacity="0"
     inkscape:pageshadow="2"
     inkscape:window-width="1600"
     inkscape:window-height="1172"
     id="namedview79"
     showgrid="false"
     inkscape:zoom="4.9166667"
     inkscape:cx="24"
     inkscape:cy="23.694915"
     inkscape:window-x="0"
     inkscape:window-y="0"
     inkscape:window-maximized="1"
     inkscape:current-layer="svg77" />
  <defs
     id="defs17">
    <linearGradient
       id="linearGradient3764"
       x1="1"
       x2="47"
       gradientUnits="userSpaceOnUse"
       gradientTransform="matrix(0,-1,1,0,-1.5e-6,47.999998)">
      <stop
         stop-color="#e4e4e4"
         stop-opacity="1"
         id="stop2" />
      <stop
         offset="1"
         stop-color="#eee"
         stop-opacity="1"
         id="stop4" />
    </linearGradient>
    <clipPath
       id="clipPath-125205684">
      <g
         transform="translate(0,-1004.3622)"
         id="g9">
        <path
           d="m -24 13 c 0 1.105 -0.672 2 -1.5 2 -0.828 0 -1.5 -0.895 -1.5 -2 0 -1.105 0.672 -2 1.5 -2 0.828 0 1.5 0.895 1.5 2 z"
           transform="matrix(15.333333,0,0,11.5,414.99999,878.8622)"
           fill="#1890d0"
           id="path7" />
      </g>
    </clipPath>
    <clipPath
       id="clipPath-130435007">
      <g
         transform="translate(0,-1004.3622)"
         id="g14">
        <path
           d="m -24 13 c 0 1.105 -0.672 2 -1.5 2 -0.828 0 -1.5 -0.895 -1.5 -2 0 -1.105 0.672 -2 1.5 -2 0.828 0 1.5 0.895 1.5 2 z"
           transform="matrix(15.333333,0,0,11.5,414.99999,878.8622)"
           fill="#1890d0"
           id="path12" />
      </g>
    </clipPath>
    <linearGradient
       id="0"
       x1="216.28"
       y1="324.17001"
       x2="215.14"
       y2="298.79001"
       gradientUnits="userSpaceOnUse">
      <stop
         stop-color="#c52828"
         id="stop2-3" />
      <stop
         stop-color="#ff5454"
         offset="1"
         id="stop4-6" />
    </linearGradient>
  </defs>
  <g
     id="g25">
    <path
       d="m 36.31 5 c 5.859 4.062 9.688 10.831 9.688 18.5 c 0 12.426 -10.07 22.5 -22.5 22.5 c -7.669 0 -14.438 -3.828 -18.5 -9.688 c 1.037 1.822 2.306 3.499 3.781 4.969 c 4.085 3.712 9.514 5.969 15.469 5.969 c 12.703 0 23 -10.298 23 -23 c 0 -5.954 -2.256 -11.384 -5.969 -15.469 c -1.469 -1.475 -3.147 -2.744 -4.969 -3.781 z m 4.969 3.781 c 3.854 4.113 6.219 9.637 6.219 15.719 c 0 12.703 -10.297 23 -23 23 c -6.081 0 -11.606 -2.364 -15.719 -6.219 c 4.16 4.144 9.883 6.719 16.219 6.719 c 12.703 0 23 -10.298 23 -23 c 0 -6.335 -2.575 -12.06 -6.719 -16.219 z"
       id="path19"
       opacity="0.05" />
    <path
       d="m 41.28 8.781 c 3.712 4.085 5.969 9.514 5.969 15.469 c 0 12.703 -10.297 23 -23 23 c -5.954 0 -11.384 -2.256 -15.469 -5.969 c 4.113 3.854 9.637 6.219 15.719 6.219 c 12.703 0 23 -10.298 23 -23 c 0 -6.081 -2.364 -11.606 -6.219 -15.719 z"
       id="path21"
       opacity="0.1" />
    <path
       d="m 31.25 2.375 c 8.615 3.154 14.75 11.417 14.75 21.13 c 0 12.426 -10.07 22.5 -22.5 22.5 c -9.708 0 -17.971 -6.135 -21.12 -14.75 a 23 23 0 0 0 44.875 -7 a 23 23 0 0 0 -16 -21.875 z"
       id="path23"
       opacity="0.2" />
  </g>
  <g
     id="g29"
     style="fill:#ffffff">
    <path
       d="m 24 1 c 12.703 0 23 10.297 23 23 c 0 12.703 -10.297 23 -23 23 -12.703 0 -23 -10.297 -23 -23 0 -12.703 10.297 -23 23 -23 z"
       id="path27"
       style="fill:#ffffff"
       fill-opacity="1"
       fill="url(#linearGradient3764)" />
  </g>
  <g
     id="g31" />
  <g
     id="g53">
    <g
       clip-path="url(#clipPath-125205684)"
       id="g51">
      <g
         transform="translate(1,1)"
         id="g49">
        <g
           id="g47"
           opacity="0.1">
          <!-- color: #eeeeee -->
          <g
             id="g45">
            <path
               d="m 24 9 c -3.844 0 -7.664 1.469 -10.598 4.398 c -5.871 5.855 -5.871 15.352 0 21.21 c 5.867 5.855 15.332 5.855 21.2 0 c 5.867 -5.859 5.867 -15.355 0 -21.21 c -2.934 -2.93 -6.754 -4.398 -10.598 -4.398 m -0.004 0"
               id="path33"
               stroke="none"
               fill-rule="nonzero"
               fill-opacity="1"
               fill="#000" />
            <path
               d="m 15 19 l 17 0 l 0 1.996 l -17 0 m 0 -1.996"
               id="path35"
               stroke="none"
               fill-rule="nonzero"
               fill-opacity="1"
               fill="#000" />
            <path
               d="m 25 20 c 0 1.656 -1.344 3 -3 3 c -1.66 0 -3 -1.344 -3 -3 c 0 -1.656 1.344 -3 3 -3 c 1.656 0 3 1.344 3 3 m 0 0"
               id="path37"
               stroke="none"
               fill-rule="nonzero"
               fill-opacity="1"
               fill="#000" />
            <path
               d="m 33 20 c 0 1.656 -1.344 3 -3 3 c -1.66 0 -3 -1.344 -3 -3 c 0 -1.656 1.344 -3 3 -3 c 1.656 0 3 1.344 3 3 m 0 0"
               id="path39"
               stroke="none"
               fill-rule="nonzero"
               fill-opacity="1"
               fill="#000" />
            <path
               d="m 33 28 c 0 1.656 -1.344 3 -3 3 c -1.66 0 -3 -1.344 -3 -3 c 0 -1.656 1.344 -3 3 -3 c 1.656 0 3 1.344 3 3 m 0 0"
               id="path41"
               stroke="none"
               fill-rule="nonzero"
               fill-opacity="1"
               fill="#000" />
            <path
               d="m 30.734 30 l -10.734 -10.738 l 1.262 -1.262 l 10.734 10.734 m -1.262 1.266"
               id="path43"
               stroke="none"
               fill-rule="nonzero"
               fill-opacity="1"
               fill="#000" />
          </g>
        </g>
      </g>
    </g>
  </g>
  <g
     id="g75">
    <path
       d="m 40.03 7.531 c 3.712 4.084 5.969 9.514 5.969 15.469 0 12.703 -10.297 23 -23 23 c -5.954 0 -11.384 -2.256 -15.469 -5.969 4.178 4.291 10.01 6.969 16.469 6.969 c 12.703 0 23 -10.298 23 -23 0 -6.462 -2.677 -12.291 -6.969 -16.469 z"
       id="path73"
       opacity="0.1" />
  </g>
  <g
     transform="matrix(0.48292963,0,0,0.48316689,-199.06265,-227.78665)"
     id="g13">
    <path
       style="fill:url(#0)"
       inkscape:connector-curvature="0"
       transform="matrix(1.91725,0,0,1.91631,49.746,-73.71)"
       d="m 216,302 c -6.06,0 -11,4.935 -11,11 0,6.06 4.935,11 11,11 6.06,0 11,-4.935 11,-11 0,-6.06 -4.935,-11 -11,-11 m -11.723,4.492 -1.244,-1.462 c -0.537,-0.642 -0.452,-1.606 0.191,-2.145 l 4.196,-3.585 c 0.642,-0.536 1.675,-0.41 2.214,0.233 l 1.462,1.719 c -2.745,1.08 -5.05,3.039 -6.571,5.53 z m 24.797,-1.5 -1.562,1.867 c -1.502,-2.503 -3.797,-4.477 -6.535,-5.574 l 1.45,-1.732 c 0.532,-0.646 1.564,-0.782 2.21,-0.25 l 4.229,3.546 c 0.646,0.533 0.739,1.497 0.208,2.143"
       id="path9" />
    <path
       style="opacity:0.98999999;fill:#ffffff;fill-opacity:0.86000001"
       inkscape:connector-curvature="0"
       d="m 463.26,514.3 c 0.868,0 1.579,0.711 1.579,1.578 v 10.809 l 6.129,4.792 c 0.71,0.526 0.817,1.525 0.291,2.209 -0.289,0.395 -0.765,0.602 -1.238,0.602 -0.342,0 -0.682,-0.13 -0.971,-0.341 l -6.759,-5.259 c -0.368,-0.289 -0.608,-0.74 -0.608,-1.239 v -11.573 c 0,-0.868 0.71,-1.578 1.578,-1.578"
       id="path11" />
  </g>
</svg>
