<?xml version="1.0" encoding="UTF-8" standalone="no"?>
<svg
   xmlns:dc="http://purl.org/dc/elements/1.1/"
   xmlns:cc="http://creativecommons.org/ns#"
   xmlns:rdf="http://www.w3.org/1999/02/22-rdf-syntax-ns#"
   xmlns:svg="http://www.w3.org/2000/svg"
   xmlns="http://www.w3.org/2000/svg"
   xmlns:xlink="http://www.w3.org/1999/xlink"
   xmlns:sodipodi="http://sodipodi.sourceforge.net/DTD/sodipodi-0.dtd"
   xmlns:inkscape="http://www.inkscape.org/namespaces/inkscape"
   viewBox="0 0 48 48"
   id="svg2"
   version="1.1"
   inkscape:version="0.48.4 r9939"
   width="100%"
   height="100%"
   sodipodi:docname="audacious.svg">
  <metadata
     id="metadata61">
    <rdf:RDF>
      <cc:Work
         rdf:about="">
        <dc:format>image/svg+xml</dc:format>
        <dc:type
           rdf:resource="http://purl.org/dc/dcmitype/StillImage" />
      </cc:Work>
    </rdf:RDF>
  </metadata>
  <sodipodi:namedview
     pagecolor="#ffffff"
     bordercolor="#666666"
     borderopacity="1"
     objecttolerance="10"
     gridtolerance="10"
     guidetolerance="10"
     inkscape:pageopacity="0"
     inkscape:pageshadow="2"
     inkscape:window-width="1309"
     inkscape:window-height="744"
     id="namedview59"
     showgrid="false"
     inkscape:zoom="4.9166667"
     inkscape:cx="24"
     inkscape:cy="24"
     inkscape:window-x="57"
     inkscape:window-y="24"
     inkscape:window-maximized="1"
     inkscape:current-layer="svg2" />
  <defs
     id="defs4">
    <linearGradient
       id="linearGradient3764"
       x1="1"
       x2="47"
       gradientUnits="userSpaceOnUse"
       gradientTransform="matrix(0,-1,1,0,-1.5e-6,47.999998)">
      <stop
         stop-color="#c74d95"
         stop-opacity="1"
         id="stop7" />
      <stop
         offset="1"
         stop-color="#cc5d9d"
         stop-opacity="1"
         id="stop9" />
    </linearGradient>
    <clipPath
       id="clipPath-912649675">
      <g
         transform="translate(0,-1004.3622)"
         id="g12">
        <path
           d="m -24 13 c 0 1.105 -0.672 2 -1.5 2 -0.828 0 -1.5 -0.895 -1.5 -2 0 -1.105 0.672 -2 1.5 -2 0.828 0 1.5 0.895 1.5 2 z"
           transform="matrix(15.333333,0,0,11.5,414.99999,878.8622)"
           fill="#1890d0"
           id="path14" />
      </g>
    </clipPath>
    <clipPath
       id="clipPath-920913795">
      <g
         transform="translate(0,-1004.3622)"
         id="g17">
        <path
           d="m -24 13 c 0 1.105 -0.672 2 -1.5 2 -0.828 0 -1.5 -0.895 -1.5 -2 0 -1.105 0.672 -2 1.5 -2 0.828 0 1.5 0.895 1.5 2 z"
           transform="matrix(15.333333,0,0,11.5,414.99999,878.8622)"
           fill="#1890d0"
           id="path19" />
      </g>
    </clipPath>
    <linearGradient
       gradientTransform="matrix(3.543307,0,0,3.543307,0,0)"
       y2="3.03"
       x2="7.771"
       y1="10.169"
       x1="7.823"
       gradientUnits="userSpaceOnUse"
       id="linearGradient3062">
      <stop
         id="stop3064"
         stop-opacity="1"
         stop-color="#f48537" />
      <stop
         id="stop3066"
         stop-opacity="1"
         stop-color="#fbb270"
         offset="1" />
    </linearGradient>
    <linearGradient
       gradientTransform="scale(3.543307,3.543307)"
       y2="3.03"
       x2="7.771"
       y1="10.169"
       x1="7.823"
       gradientUnits="userSpaceOnUse"
       id="linear0">
      <stop
         id="stop3058"
         stop-opacity="1"
         stop-color="#f48537" />
      <stop
         id="stop3060"
         stop-opacity="1"
         stop-color="#fbb270"
         offset="1" />
    </linearGradient>
    <clipPath
       id="clipPath-417240221">
      <g
         id="g3053"
         transform="translate(0,-1004.3622)">
        <path
           id="path3055"
           fill="#1890d0"
           transform="matrix(15.333333,0,0,11.5,414.99999,878.8622)"
           d="m -24 13 c 0 1.105 -0.672 2 -1.5 2 -0.828 0 -1.5 -0.895 -1.5 -2 0 -1.105 0.672 -2 1.5 -2 0.828 0 1.5 0.895 1.5 2 z" />
      </g>
    </clipPath>
    <clipPath
       id="clipPath-409983509">
      <g
         id="g3048"
         transform="translate(0,-1004.3622)">
        <path
           id="path3050"
           fill="#1890d0"
           transform="matrix(15.333333,0,0,11.5,414.99999,878.8622)"
           d="m -24 13 c 0 1.105 -0.672 2 -1.5 2 -0.828 0 -1.5 -0.895 -1.5 -2 0 -1.105 0.672 -2 1.5 -2 0.828 0 1.5 0.895 1.5 2 z" />
      </g>
    </clipPath>
    <linearGradient
       gradientTransform="matrix(0,-1,1,0,-1.5e-6,47.999998)"
       gradientUnits="userSpaceOnUse"
       x2="47"
       x1="1"
       id="linearGradient3764-3">
      <stop
         id="stop3043"
         stop-opacity="1"
         stop-color="#487ca8" />
      <stop
         id="stop3045"
         stop-opacity="1"
         stop-color="#5086b4"
         offset="1" />
    </linearGradient>
    <linearGradient
       inkscape:collect="always"
       xlink:href="#linearGradient3764"
       id="linearGradient3159"
       gradientUnits="userSpaceOnUse"
       gradientTransform="matrix(0,-1,1,0,-71.796612,46.576269)"
       x1="1"
       x2="47" />
    <linearGradient
       inkscape:collect="always"
       xlink:href="#linear0"
       id="linearGradient3954"
       gradientUnits="userSpaceOnUse"
       gradientTransform="scale(3.543307,3.543307)"
       x1="7.823"
       y1="10.169"
       x2="7.771"
       y2="3.03" />
    <linearGradient
       inkscape:collect="always"
       xlink:href="#linearGradient3764-3"
       id="linearGradient3958"
       gradientUnits="userSpaceOnUse"
       gradientTransform="matrix(0,-1,1,0,-1.5e-6,47.999998)"
       x1="1"
       x2="47" />
  </defs>
  <g
     id="g3068"
     transform="translate(-0.29561024,-0.09322007)">
    <path
       style="opacity:0.05"
       inkscape:connector-curvature="0"
       d="m 36.31,5 c 5.859,4.062 9.688,10.831 9.688,18.5 0,12.426 -10.07,22.5 -22.5,22.5 -7.669,0 -14.438,-3.828 -18.5,-9.688 1.037,1.822 2.306,3.499 3.781,4.969 4.085,3.712 9.514,5.969 15.469,5.969 12.703,0 23,-10.298 23,-23 0,-5.954 -2.256,-11.384 -5.969,-15.469 C 39.81,7.306 38.132,6.037 36.31,5 z m 4.969,3.781 c 3.854,4.113 6.219,9.637 6.219,15.719 0,12.703 -10.297,23 -23,23 -6.081,0 -11.606,-2.364 -15.719,-6.219 4.16,4.144 9.883,6.719 16.219,6.719 12.703,0 23,-10.298 23,-23 0,-6.335 -2.575,-12.06 -6.719,-16.219 z"
       id="path3070" />
    <path
       style="opacity:0.1"
       inkscape:connector-curvature="0"
       d="m 41.28,8.781 c 3.712,4.085 5.969,9.514 5.969,15.469 0,12.703 -10.297,23 -23,23 -5.954,0 -11.384,-2.256 -15.469,-5.969 4.113,3.854 9.637,6.219 15.719,6.219 12.703,0 23,-10.298 23,-23 0,-6.081 -2.364,-11.606 -6.219,-15.719 z"
       id="path3072" />
    <path
       style="opacity:0.2"
       inkscape:connector-curvature="0"
       d="M 31.25,2.375 C 39.865,5.529 46,13.792 46,23.505 c 0,12.426 -10.07,22.5 -22.5,22.5 -9.708,0 -17.971,-6.135 -21.12,-14.75 a 23,23 0 0 0 44.875,-7 23,23 0 0 0 -16,-21.875 z"
       id="path3074" />
  </g>
  <g
     id="g3076"
     transform="translate(-0.29561024,-0.09322007)">
    <path
       inkscape:connector-curvature="0"
       d="M 24,1 C 36.703,1 47,11.297 47,24 47,36.703 36.703,47 24,47 11.297,47 1,36.703 1,24 1,11.297 11.297,1 24,1 z"
       id="path3078"
       style="fill:url(#linearGradient3958);fill-opacity:1" />
  </g>
  <g
     id="g3110"
     transform="translate(-0.29561024,-0.09322007)">
    <path
       style="opacity:0.1"
       inkscape:connector-curvature="0"
       d="m 40.03,7.531 c 3.712,4.084 5.969,9.514 5.969,15.469 0,12.703 -10.297,23 -23,23 C 17.045,46 11.615,43.744 7.53,40.031 11.708,44.322 17.54,47 23.999,47 c 12.703,0 23,-10.298 23,-23 0,-6.462 -2.677,-12.291 -6.969,-16.469 z"
       id="path3112" />
  </g>
  <g
     id="g33" />
  <g
     id="g35">
    <g
       clip-path="url(#clipPath-912649675)"
       id="g37">
      <g
         transform="translate(1,1)"
         id="g39">
        <g
           opacity="0.1"
           id="g41">
          <!-- color: #cc5d9d -->
          <g
             id="g43">
            <path
               d="m 23.504 12 c -1.742 0 -3.391 0.309 -4.906 0.941 c -1.512 0.625 -2.805 1.477 -3.934 2.563 c -0.605 0.578 -1.156 1.215 -1.629 1.906 c 9.945 -5.652 16.652 0.398 16.559 2.313 c -0.066 1.406 -1.297 1.145 -4.03 0.375 c -5.816 -1.633 -11.82 0.457 -13.344 5.469 c -0.512 1.758 -0.094 3.543 0.813 5 c 0.023 0.023 0.023 0.066 0.031 0.09 c 0.461 0.664 1.012 1.281 1.598 1.844 c 1.129 1.082 2.43 1.934 3.941 2.563 c 1.516 0.625 3.164 0.941 4.906 0.941 c 1.719 0 3.316 -0.313 4.844 -0.941 c 1.535 -0.629 2.867 -1.477 4 -2.563 c 1.129 -1.086 2 -2.359 2.656 -3.813 c 0.648 -1.453 1 -3.02 1 -4.688 c 0 -1.648 -0.352 -3.203 -1 -4.656 c -0.656 -1.477 -1.527 -2.762 -2.656 -3.844 c -1.133 -1.086 -2.465 -1.938 -4 -2.563 c -1.523 -0.629 -3.125 -0.941 -4.844 -0.941 m -0.91 12.04 c 1.816 -0.086 3.602 0.383 4.844 1.27 c 1.238 0.887 1.801 2.098 1.531 3.293 c -0.563 2.141 -3.59 3.59 -6.836 3.27 c -3.242 -0.316 -5.516 -2.301 -5.105 -4.457 c 0.422 -1.852 2.738 -3.254 5.566 -3.371 m -0.004 -0.004"
               fill="#000"
               stroke="none"
               fill-rule="nonzero"
               fill-opacity="1"
               id="path45" />
          </g>
        </g>
      </g>
    </g>
  </g>
  <g
     id="g47">
    <g
       clip-path="url(#clipPath-920913795)"
       id="g49">
      <!-- color: #cc5d9d -->
      <g
         id="g51">
        <path
           d="m 23.504 12 c -1.742 0 -3.391 0.309 -4.906 0.941 c -1.512 0.625 -2.805 1.477 -3.934 2.563 c -0.605 0.578 -1.156 1.215 -1.629 1.906 c 9.945 -5.652 16.652 0.398 16.559 2.313 c -0.066 1.406 -1.297 1.145 -4.03 0.375 c -5.816 -1.633 -11.82 0.457 -13.344 5.469 c -0.512 1.758 -0.094 3.543 0.813 5 c 0.023 0.023 0.023 0.066 0.031 0.09 c 0.461 0.664 1.012 1.281 1.598 1.844 c 1.129 1.082 2.43 1.934 3.941 2.563 c 1.516 0.625 3.164 0.941 4.906 0.941 c 1.719 0 3.316 -0.313 4.844 -0.941 c 1.535 -0.629 2.867 -1.477 4 -2.563 c 1.129 -1.086 2 -2.359 2.656 -3.813 c 0.648 -1.453 1 -3.02 1 -4.688 c 0 -1.648 -0.352 -3.203 -1 -4.656 c -0.656 -1.477 -1.527 -2.762 -2.656 -3.844 c -1.133 -1.086 -2.465 -1.938 -4 -2.563 c -1.523 -0.629 -3.125 -0.941 -4.844 -0.941 m -0.91 12.04 c 1.816 -0.086 3.602 0.383 4.844 1.27 c 1.238 0.887 1.801 2.098 1.531 3.293 c -0.563 2.141 -3.59 3.59 -6.836 3.27 c -3.242 -0.316 -5.516 -2.301 -5.105 -4.457 c 0.422 -1.852 2.738 -3.254 5.566 -3.371 m -0.004 -0.004"
           fill="#fbf4fa"
           stroke="none"
           fill-rule="nonzero"
           fill-opacity="1"
           id="path53" />
      </g>
    </g>
  </g>
  <g
     id="g3080"
     transform="translate(66.619644,-28.974576)" />
</svg>
