<?xml version="1.0" encoding="UTF-8" standalone="no"?>
<svg
   xmlns:dc="http://purl.org/dc/elements/1.1/"
   xmlns:cc="http://creativecommons.org/ns#"
   xmlns:rdf="http://www.w3.org/1999/02/22-rdf-syntax-ns#"
   xmlns:svg="http://www.w3.org/2000/svg"
   xmlns="http://www.w3.org/2000/svg"
   xmlns:xlink="http://www.w3.org/1999/xlink"
   xmlns:sodipodi="http://sodipodi.sourceforge.net/DTD/sodipodi-0.dtd"
   xmlns:inkscape="http://www.inkscape.org/namespaces/inkscape"
   viewBox="0 0 48 48"
   id="svg2"
   version="1.1"
   inkscape:version="0.48.4 r9939"
   width="100%"
   height="100%"
   sodipodi:docname="cog.svg">
  <metadata
     id="metadata109">
    <rdf:RDF>
      <cc:Work
         rdf:about="">
        <dc:format>image/svg+xml</dc:format>
        <dc:type
           rdf:resource="http://purl.org/dc/dcmitype/StillImage" />
      </cc:Work>
    </rdf:RDF>
  </metadata>
  <sodipodi:namedview
     pagecolor="#ffffff"
     bordercolor="#666666"
     borderopacity="1"
     objecttolerance="10"
     gridtolerance="10"
     guidetolerance="10"
     inkscape:pageopacity="0"
     inkscape:pageshadow="2"
     inkscape:window-width="1309"
     inkscape:window-height="744"
     id="namedview107"
     showgrid="false"
     inkscape:zoom="4.9166667"
     inkscape:cx="78.007068"
     inkscape:cy="24"
     inkscape:window-x="57"
     inkscape:window-y="24"
     inkscape:window-maximized="1"
     inkscape:current-layer="svg2" />
  <defs
     id="defs4">
    <linearGradient
       id="linearGradient3764"
       x1="1"
       x2="47"
       gradientUnits="userSpaceOnUse"
       gradientTransform="matrix(0,-1,1,0,-1.5e-6,47.999998)">
      <stop
         stop-color="#7e4c67"
         stop-opacity="1"
         id="stop7" />
      <stop
         offset="1"
         stop-color="#8b5371"
         stop-opacity="1"
         id="stop9" />
    </linearGradient>
    <clipPath
       id="clipPath-931746650">
      <g
         transform="translate(0,-1004.3622)"
         id="g12">
        <path
           d="m -24 13 c 0 1.105 -0.672 2 -1.5 2 -0.828 0 -1.5 -0.895 -1.5 -2 0 -1.105 0.672 -2 1.5 -2 0.828 0 1.5 0.895 1.5 2 z"
           transform="matrix(15.333333,0,0,11.5,414.99999,878.8622)"
           fill="#1890d0"
           id="path14" />
      </g>
    </clipPath>
    <clipPath
       id="clipPath-946816742">
      <g
         transform="translate(0,-1004.3622)"
         id="g17">
        <path
           d="m -24 13 c 0 1.105 -0.672 2 -1.5 2 -0.828 0 -1.5 -0.895 -1.5 -2 0 -1.105 0.672 -2 1.5 -2 0.828 0 1.5 0.895 1.5 2 z"
           transform="matrix(15.333333,0,0,11.5,414.99999,878.8622)"
           fill="#1890d0"
           id="path19" />
      </g>
    </clipPath>
    <path
       id="SVGCleanerId_0"
       d="m 6.507 9.61 l 0.537 0 l 0 0.535 l -0.537 0 m 0 -0.535"
       stroke-opacity="1"
       stroke-width="0.594"
       stroke-linejoin="miter"
       stroke-miterlimit="5.8"
       stroke-linecap="butt" />
    <path
       id="SVGCleanerId_1"
       d="m 6.506 9.61 l 0.535 0 l 0 0.535 l -0.535 0 m 0 -0.535"
       stroke-opacity="1"
       stroke-width="0.594"
       stroke="#f9f9f9"
       stroke-linejoin="miter"
       stroke-miterlimit="5.8"
       stroke-linecap="butt" />
    <path
       id="SVGCleanerId_2"
       d="m 6.507 3.401 l 0.537 0 l 0 0.535 l -0.537 0 m 0 -0.535"
       stroke-opacity="1"
       stroke-width="0.594"
       stroke-linejoin="miter"
       stroke-miterlimit="5.8"
       stroke-linecap="butt" />
    <path
       id="SVGCleanerId_3"
       d="m 6.506 3.4 l 0.536 0.001 l 0 0.535 l -0.536 0.001 m 0 -0.536"
       stroke-opacity="1"
       stroke-width="0.594"
       stroke="#f9f9f9"
       stroke-linejoin="miter"
       stroke-miterlimit="5.8"
       stroke-linecap="butt" />
    <clipPath
       id="clipPath-276333788">
      <g
         id="g3101"
         transform="translate(0,-1004.3622)">
        <path
           id="path3103"
           fill="#1890d0"
           transform="matrix(15.333333,0,0,11.5,414.99999,878.8622)"
           d="m -24 13 c 0 1.105 -0.672 2 -1.5 2 -0.828 0 -1.5 -0.895 -1.5 -2 0 -1.105 0.672 -2 1.5 -2 0.828 0 1.5 0.895 1.5 2 z" />
      </g>
    </clipPath>
    <clipPath
       id="clipPath-265162442">
      <g
         id="g3096"
         transform="translate(0,-1004.3622)">
        <path
           id="path3098"
           fill="#1890d0"
           transform="matrix(15.333333,0,0,11.5,414.99999,878.8622)"
           d="m -24 13 c 0 1.105 -0.672 2 -1.5 2 -0.828 0 -1.5 -0.895 -1.5 -2 0 -1.105 0.672 -2 1.5 -2 0.828 0 1.5 0.895 1.5 2 z" />
      </g>
    </clipPath>
    <linearGradient
       gradientTransform="matrix(0,-1,1,0,-1.5e-6,47.999998)"
       gradientUnits="userSpaceOnUse"
       x2="47"
       x1="1"
       id="linearGradient3764-1">
      <stop
         id="stop3091"
         stop-opacity="1"
         stop-color="#d52f2b" />
      <stop
         id="stop3093"
         stop-opacity="1"
         stop-color="#d83f3d"
         offset="1" />
    </linearGradient>
    <linearGradient
       inkscape:collect="always"
       xlink:href="#linearGradient3764-1"
       id="linearGradient3238"
       gradientUnits="userSpaceOnUse"
       gradientTransform="matrix(0,-1,1,0,-1.5e-6,47.999998)"
       x1="1"
       x2="47" />
    <linearGradient
       inkscape:collect="always"
       xlink:href="#linearGradient3764"
       id="linearGradient3240"
       gradientUnits="userSpaceOnUse"
       gradientTransform="matrix(0,-1,1,0,-1.5e-6,47.999998)"
       x1="1"
       x2="47" />
  </defs>
  <g
     id="g37" />
  <g
     id="g3105"
     transform="translate(-0.49899995,0.31356018)">
    <path
       style="opacity:0.05"
       inkscape:connector-curvature="0"
       d="m 36.31,5 c 5.859,4.062 9.688,10.831 9.688,18.5 0,12.426 -10.07,22.5 -22.5,22.5 -7.669,0 -14.438,-3.828 -18.5,-9.688 1.037,1.822 2.306,3.499 3.781,4.969 4.085,3.712 9.514,5.969 15.469,5.969 12.703,0 23,-10.298 23,-23 0,-5.954 -2.256,-11.384 -5.969,-15.469 C 39.81,7.306 38.132,6.037 36.31,5 z m 4.969,3.781 c 3.854,4.113 6.219,9.637 6.219,15.719 0,12.703 -10.297,23 -23,23 -6.081,0 -11.606,-2.364 -15.719,-6.219 4.16,4.144 9.883,6.719 16.219,6.719 12.703,0 23,-10.298 23,-23 0,-6.335 -2.575,-12.06 -6.719,-16.219 z"
       id="path3107" />
    <path
       style="opacity:0.1"
       inkscape:connector-curvature="0"
       d="m 41.28,8.781 c 3.712,4.085 5.969,9.514 5.969,15.469 0,12.703 -10.297,23 -23,23 -5.954,0 -11.384,-2.256 -15.469,-5.969 4.113,3.854 9.637,6.219 15.719,6.219 12.703,0 23,-10.298 23,-23 0,-6.081 -2.364,-11.606 -6.219,-15.719 z"
       id="path3109" />
    <path
       style="opacity:0.2"
       inkscape:connector-curvature="0"
       d="M 31.25,2.375 C 39.865,5.529 46,13.792 46,23.505 c 0,12.426 -10.07,22.5 -22.5,22.5 -9.708,0 -17.971,-6.135 -21.12,-14.75 a 23,23 0 0 0 44.875,-7 23,23 0 0 0 -16,-21.875 z"
       id="path3111" />
  </g>
  <g
     id="g3113"
     transform="translate(-0.49899995,0.31356018)">
    <path
       inkscape:connector-curvature="0"
       d="M 24,1 C 36.703,1 47,11.297 47,24 47,36.703 36.703,47 24,47 11.297,47 1,36.703 1,24 1,11.297 11.297,1 24,1 z"
       id="path3115"
       style="fill:url(#linearGradient3238);fill-opacity:1" />
  </g>
  <g
     id="g3117"
     transform="translate(80.246763,-22.262711)" />
  <g
     id="g3159"
     transform="translate(-0.49899995,0.31356018)">
    <path
       style="opacity:0.1"
       inkscape:connector-curvature="0"
       d="m 40.03,7.531 c 3.712,4.084 5.969,9.514 5.969,15.469 0,12.703 -10.297,23 -23,23 C 17.045,46 11.615,43.744 7.53,40.031 11.708,44.322 17.54,47 23.999,47 c 12.703,0 23,-10.298 23,-23 0,-6.462 -2.677,-12.291 -6.969,-16.469 z"
       id="path3161" />
  </g>
  <g
     id="g39">
    <g
       clip-path="url(#clipPath-931746650)"
       id="g41">
      <g
         transform="translate(1,1)"
         id="g43">
        <g
           opacity="0.1"
           id="g45">
          <!-- color: #8b5371 -->
          <g
             id="g47">
            <path
               d="m 35 24.5 c 0 6.905 -5.597 12.502 -12.502 12.502 c -6.905 0 -12.502 -5.597 -12.502 -12.502 c 0 -6.905 5.597 -12.502 12.502 -12.502 c 6.905 0 12.502 5.597 12.502 12.502 m 0 0"
               transform="matrix(0.758621,0,0,0.758621,6.931034,5.413795)"
               stroke-opacity="1"
               fill="#000"
               stroke="#f9f9f9"
               stroke-linejoin="round"
               stroke-linecap="butt"
               stroke-width="4"
               stroke-miterlimit="5.8"
               id="path49" />
            <use
               transform="matrix(3.543307,0,0,3.543307,0,0)"
               fill="#000"
               stroke="#fff"
               xlink:href="#SVGCleanerId_0"
               id="use51" />
            <use
               transform="matrix(3.543307,0,0,3.543307,0,0)"
               fill="#000"
               stroke="#fff"
               xlink:href="#SVGCleanerId_2"
               id="use53" />
            <use
               transform="matrix(0.000088201,3.543307,-3.543307,0.000088201,47.999405,-0.000598112)"
               fill="#000"
               xlink:href="#SVGCleanerId_1"
               id="use55" />
            <path
               d="m 6.506 3.401 l 0.538 0 l 0 0.535 l -0.538 0 m 0 -0.535"
               transform="matrix(0.000088201,3.543307,-3.543307,0.000088201,47.999405,-0.000598112)"
               stroke-opacity="1"
               fill="#000"
               stroke="#f9f9f9"
               stroke-linejoin="miter"
               stroke-linecap="butt"
               stroke-width="0.594"
               stroke-miterlimit="5.8"
               id="path57" />
            <use
               transform="matrix(3.543307,0,0,3.543307,0,0)"
               fill="#000"
               stroke="#f9f9f9"
               xlink:href="#SVGCleanerId_0"
               id="use59" />
            <use
               transform="matrix(3.543307,0,0,3.543307,0,0)"
               fill="#000"
               stroke="#f9f9f9"
               xlink:href="#SVGCleanerId_2"
               id="use61" />
            <use
               transform="matrix(2.505496,-2.505496,2.505496,2.505496,-9.941126,24.000001)"
               fill="#000"
               xlink:href="#SVGCleanerId_1"
               id="use63" />
            <use
               transform="matrix(2.505496,-2.505496,2.505496,2.505496,-9.941126,24.000001)"
               fill="#000"
               xlink:href="#SVGCleanerId_3"
               id="use65" />
            <use
               transform="matrix(2.505496,2.505496,-2.505496,2.505496,24.000001,-9.941126)"
               fill="#000"
               xlink:href="#SVGCleanerId_1"
               id="use67" />
            <use
               transform="matrix(2.505496,2.505496,-2.505496,2.505496,23.999999,-9.941126)"
               fill="#000"
               xlink:href="#SVGCleanerId_3"
               id="use69" />
            <path
               d="m 27.04 24.02 c 0.148 1.16 -0.387 2.305 -1.375 2.934 c -0.988 0.629 -2.254 0.629 -3.242 0 c -0.992 -0.629 -1.527 -1.773 -1.375 -2.934 c -0.152 -1.164 0.383 -2.305 1.375 -2.934 c 0.988 -0.629 2.254 -0.629 3.242 0 c 0.988 0.629 1.523 1.77 1.375 2.934 m 0 0"
               fill="#000"
               stroke="none"
               fill-rule="nonzero"
               fill-opacity="1"
               id="path71" />
          </g>
        </g>
      </g>
    </g>
  </g>
  <g
     id="g73">
    <g
       clip-path="url(#clipPath-946816742)"
       id="g75">
      <!-- color: #8b5371 -->
      <g
         id="g77">
        <path
           d="m 35 24.5 c 0 6.905 -5.597 12.502 -12.502 12.502 c -6.905 0 -12.502 -5.597 -12.502 -12.502 c 0 -6.905 5.597 -12.502 12.502 -12.502 c 6.905 0 12.502 5.597 12.502 12.502 m 0 0"
           transform="matrix(0.758621,0,0,0.758621,6.931034,5.413795)"
           stroke-miterlimit="5.8"
           id="path79"
           stroke-opacity="1"
           stroke-linejoin="round"
           stroke-linecap="butt"
           stroke-width="4"
           stroke="#f9f9f9"
           fill="none" />
        <use
           transform="matrix(3.543307,0,0,3.543307,0,0)"
           xlink:href="#SVGCleanerId_0"
           id="use81"
           stroke="#fff"
           fill="none" />
        <path
           d="m 6.507 3.401 l 0.537 0 l 0 0.535 l -0.537 0 m 0 -0.535"
           transform="matrix(3.543307,0,0,3.543307,0,0)"
           stroke-miterlimit="5.8"
           id="path83"
           stroke-opacity="1"
           stroke-linejoin="miter"
           stroke-linecap="butt"
           stroke-width="0.594"
           stroke="#fff"
           fill="none" />
        <use
           transform="matrix(0.000088201,3.543307,-3.543307,0.000088201,47.999405,-0.000598112)"
           xlink:href="#SVGCleanerId_1"
           id="use85"
           fill="none" />
        <path
           d="m 6.506 3.401 l 0.538 0 l 0 0.535 l -0.538 0 m 0 -0.535"
           transform="matrix(0.000088201,3.543307,-3.543307,0.000088201,47.999405,-0.000598112)"
           stroke-miterlimit="5.8"
           id="path87"
           stroke-opacity="1"
           stroke-linejoin="miter"
           stroke-linecap="butt"
           stroke-width="0.594"
           stroke="#f9f9f9"
           fill="none" />
        <use
           transform="matrix(3.543307,0,0,3.543307,0,0)"
           xlink:href="#SVGCleanerId_0"
           id="use89"
           stroke="#f9f9f9"
           fill="none" />
        <use
           transform="matrix(3.543307,0,0,3.543307,0,0)"
           xlink:href="#SVGCleanerId_2"
           id="use91"
           stroke="#f9f9f9"
           fill="none" />
        <use
           transform="matrix(2.505496,-2.505496,2.505496,2.505496,-9.941126,24.000001)"
           xlink:href="#SVGCleanerId_1"
           id="use93"
           fill="none" />
        <path
           d="m 6.506 3.4 l 0.536 0.001 l 0 0.535 l -0.536 0.001 m 0 -0.536"
           transform="matrix(2.505496,-2.505496,2.505496,2.505496,-9.941126,24.000001)"
           stroke-miterlimit="5.8"
           id="path95"
           stroke-opacity="1"
           stroke-linejoin="miter"
           stroke-linecap="butt"
           stroke-width="0.594"
           stroke="#f9f9f9"
           fill="none" />
        <use
           transform="matrix(2.505496,2.505496,-2.505496,2.505496,24.000001,-9.941126)"
           xlink:href="#SVGCleanerId_1"
           id="use97"
           fill="none" />
        <use
           transform="matrix(2.505496,2.505496,-2.505496,2.505496,23.999999,-9.941126)"
           xlink:href="#SVGCleanerId_3"
           id="use99"
           fill="none" />
        <path
           d="m 27.04 24.02 c 0.148 1.16 -0.387 2.305 -1.375 2.934 c -0.988 0.629 -2.254 0.629 -3.242 0 c -0.992 -0.629 -1.527 -1.773 -1.375 -2.934 c -0.152 -1.164 0.383 -2.305 1.375 -2.934 c 0.988 -0.629 2.254 -0.629 3.242 0 c 0.988 0.629 1.523 1.77 1.375 2.934 m 0 0"
           id="path101"
           stroke="none"
           fill-rule="nonzero"
           fill-opacity="1"
           fill="#f9f9f9" />
      </g>
    </g>
  </g>
</svg>
