<?xml version="1.0" encoding="UTF-8" standalone="no"?>
<svg
   xmlns:dc="http://purl.org/dc/elements/1.1/"
   xmlns:cc="http://creativecommons.org/ns#"
   xmlns:rdf="http://www.w3.org/1999/02/22-rdf-syntax-ns#"
   xmlns:svg="http://www.w3.org/2000/svg"
   xmlns="http://www.w3.org/2000/svg"
   xmlns:xlink="http://www.w3.org/1999/xlink"
   xmlns:sodipodi="http://sodipodi.sourceforge.net/DTD/sodipodi-0.dtd"
   xmlns:inkscape="http://www.inkscape.org/namespaces/inkscape"
   viewBox="0 0 48 48"
   id="svg2"
   version="1.1"
   inkscape:version="0.48.4 r9939"
   width="100%"
   height="100%"
   sodipodi:docname="text-editor.svg">
  <metadata
     id="metadata88">
    <rdf:RDF>
      <cc:Work
         rdf:about="">
        <dc:format>image/svg+xml</dc:format>
        <dc:type
           rdf:resource="http://purl.org/dc/dcmitype/StillImage" />
      </cc:Work>
    </rdf:RDF>
  </metadata>
  <sodipodi:namedview
     pagecolor="#ffffff"
     bordercolor="#666666"
     borderopacity="1"
     objecttolerance="10"
     gridtolerance="10"
     guidetolerance="10"
     inkscape:pageopacity="0"
     inkscape:pageshadow="2"
     inkscape:window-width="1309"
     inkscape:window-height="744"
     id="namedview86"
     showgrid="false"
     inkscape:zoom="4.9166667"
     inkscape:cx="24.40678"
     inkscape:cy="24"
     inkscape:window-x="57"
     inkscape:window-y="24"
     inkscape:window-maximized="1"
     inkscape:current-layer="svg2" />
  <defs
     id="defs4">
    <linearGradient
       id="linearGradient3764"
       x1="1"
       x2="47"
       gradientUnits="userSpaceOnUse"
       gradientTransform="matrix(0,-1,1,0,-1.5e-6,47.999998)">
      <stop
         stop-color="#a467af"
         stop-opacity="1"
         id="stop7" />
      <stop
         offset="1"
         stop-color="#ac74b6"
         stop-opacity="1"
         id="stop9" />
    </linearGradient>
    <clipPath
       id="clipPath-623478523">
      <g
         transform="translate(0,-1004.3622)"
         id="g12">
        <path
           d="m -24 13 c 0 1.105 -0.672 2 -1.5 2 -0.828 0 -1.5 -0.895 -1.5 -2 0 -1.105 0.672 -2 1.5 -2 0.828 0 1.5 0.895 1.5 2 z"
           transform="matrix(15.333333,0,0,11.5,414.99999,878.8622)"
           fill="#1890d0"
           id="path14" />
      </g>
    </clipPath>
    <clipPath
       id="clipPath-633014263">
      <g
         transform="translate(0,-1004.3622)"
         id="g17">
        <path
           d="m -24 13 c 0 1.105 -0.672 2 -1.5 2 -0.828 0 -1.5 -0.895 -1.5 -2 0 -1.105 0.672 -2 1.5 -2 0.828 0 1.5 0.895 1.5 2 z"
           transform="matrix(15.333333,0,0,11.5,414.99999,878.8622)"
           fill="#1890d0"
           id="path19" />
      </g>
    </clipPath>
  </defs>
  <g
     id="g21">
    <path
       d="m 36.31 5 c 5.859 4.062 9.688 10.831 9.688 18.5 c 0 12.426 -10.07 22.5 -22.5 22.5 c -7.669 0 -14.438 -3.828 -18.5 -9.688 c 1.037 1.822 2.306 3.499 3.781 4.969 c 4.085 3.712 9.514 5.969 15.469 5.969 c 12.703 0 23 -10.298 23 -23 c 0 -5.954 -2.256 -11.384 -5.969 -15.469 c -1.469 -1.475 -3.147 -2.744 -4.969 -3.781 z m 4.969 3.781 c 3.854 4.113 6.219 9.637 6.219 15.719 c 0 12.703 -10.297 23 -23 23 c -6.081 0 -11.606 -2.364 -15.719 -6.219 c 4.16 4.144 9.883 6.719 16.219 6.719 c 12.703 0 23 -10.298 23 -23 c 0 -6.335 -2.575 -12.06 -6.719 -16.219 z"
       opacity="0.05"
       id="path23" />
    <path
       d="m 41.28 8.781 c 3.712 4.085 5.969 9.514 5.969 15.469 c 0 12.703 -10.297 23 -23 23 c -5.954 0 -11.384 -2.256 -15.469 -5.969 c 4.113 3.854 9.637 6.219 15.719 6.219 c 12.703 0 23 -10.298 23 -23 c 0 -6.081 -2.364 -11.606 -6.219 -15.719 z"
       opacity="0.1"
       id="path25" />
    <path
       d="m 31.25 2.375 c 8.615 3.154 14.75 11.417 14.75 21.13 c 0 12.426 -10.07 22.5 -22.5 22.5 c -9.708 0 -17.971 -6.135 -21.12 -14.75 a 23 23 0 0 0 44.875 -7 a 23 23 0 0 0 -16 -21.875 z"
       opacity="0.2"
       id="path27" />
  </g>
  <path
     inkscape:connector-curvature="0"
     style="fill:#006980;fill-opacity:1"
     id="path31"
     d="M 24,1 C 36.703,1 47,11.297 47,24 47,36.703 36.703,47 24,47 11.297,47 1,36.703 1,24 1,11.297 11.297,1 24,1 z" />
  <g
     id="g33" />
  <g
     id="g35">
    <g
       clip-path="url(#clipPath-623478523)"
       id="g37">
      <g
         transform="translate(1,1)"
         id="g39">
        <g
           opacity="0.1"
           id="g41">
          <!-- color: #ac74b6 -->
          <g
             id="g43">
            <path
               d="m 15.875 11 c -0.492 0 -0.875 0.383 -0.875 0.875 l 0 24.25 c 0 0.492 0.383 0.875 0.875 0.875 l 18.25 0 c 0.492 0 0.875 -0.383 0.875 -0.875 l 0 -20.12 l -5 -5 m -14.12 0"
               stroke="none"
               fill-rule="nonzero"
               fill-opacity="1"
               fill="#000"
               id="path45" />
            <path
               d="m 17 29 l 10 0 l 0 -2 l -10 0 m 0 2"
               stroke="none"
               fill-rule="nonzero"
               fill-opacity="1"
               fill="#000"
               id="path47" />
            <path
               d="m 17 25 l 13 0 l 0 -2 l -13 0 m 0 2"
               stroke="none"
               fill-rule="nonzero"
               fill-opacity="1"
               fill="#000"
               id="path49" />
            <path
               d="m 17 21 l 8 0 l 0 -2 l -8 0 m 0 2"
               stroke="none"
               fill-rule="nonzero"
               fill-opacity="1"
               fill="#000"
               id="path51" />
            <path
               d="m 17 17 l 11 0 l 0 -2 l -11 0 m 0 2"
               stroke="none"
               fill-rule="nonzero"
               fill-opacity="1"
               fill="#000"
               id="path53" />
            <path
               d="m 17 34 l 16 0 l 0 -2 l -16 0 m 0 2"
               stroke="none"
               fill-rule="nonzero"
               fill-opacity="1"
               fill="#000"
               id="path55" />
            <path
               d="m 30 11 l 0 5 l 5 0 m -5 -5"
               stroke="none"
               fill-rule="nonzero"
               fill-opacity="1"
               fill="#000"
               id="path57" />
            <use
               xlink:href="#SVGCleanerId_0"
               id="use59" />
          </g>
        </g>
      </g>
    </g>
  </g>
  <g
     id="g61">
    <g
       clip-path="url(#clipPath-633014263)"
       id="g63">
      <!-- color: #ac74b6 -->
      <g
         id="g65">
        <path
           d="m 15.875 11 c -0.492 0 -0.875 0.383 -0.875 0.875 l 0 24.25 c 0 0.492 0.383 0.875 0.875 0.875 l 18.25 0 c 0.492 0 0.875 -0.383 0.875 -0.875 l 0 -20.12 l -5 -5 m -14.12 0"
           fill="#ececde"
           stroke="none"
           fill-rule="nonzero"
           fill-opacity="1"
           id="path67" />
        <path
           d="m 17 29 l 10 0 l 0 -2 l -10 0 m 0 2"
           fill="#8d758e"
           stroke="none"
           fill-rule="nonzero"
           fill-opacity="1"
           id="path69" />
        <path
           d="m 17 25 l 13 0 l 0 -2 l -13 0 m 0 2"
           fill="#8d758e"
           stroke="none"
           fill-rule="nonzero"
           fill-opacity="1"
           id="path71" />
        <path
           d="m 17 21 l 8 0 l 0 -2 l -8 0 m 0 2"
           fill="#8d758e"
           stroke="none"
           fill-rule="nonzero"
           fill-opacity="1"
           id="path73" />
        <path
           d="m 17 17 l 11 0 l 0 -2 l -11 0 m 0 2"
           fill="#8d758e"
           stroke="none"
           fill-rule="nonzero"
           fill-opacity="1"
           id="path75" />
        <path
           d="m 17 34 l 16 0 l 0 -2 l -16 0 m 0 2"
           fill="#8d758e"
           stroke="none"
           fill-rule="nonzero"
           fill-opacity="1"
           id="path77" />
        <path
           d="m 30 11 l 0 5 l 5 0 m -5 -5"
           fill="#fff"
           stroke="none"
           fill-rule="nonzero"
           fill-opacity="1"
           id="path79" />
        <path
           d="m 35 21 l 0 -5 l -5 0 m 5 5"
           fill="#000"
           stroke="none"
           fill-rule="nonzero"
           fill-opacity="0.2"
           id="SVGCleanerId_0" />
      </g>
    </g>
  </g>
  <g
     id="g82">
    <path
       d="m 40.03 7.531 c 3.712 4.084 5.969 9.514 5.969 15.469 0 12.703 -10.297 23 -23 23 c -5.954 0 -11.384 -2.256 -15.469 -5.969 4.178 4.291 10.01 6.969 16.469 6.969 c 12.703 0 23 -10.298 23 -23 0 -6.462 -2.677 -12.291 -6.969 -16.469 z"
       opacity="0.1"
       id="path84" />
  </g>
</svg>
